<svg xmlns="http://www.w3.org/2000/svg" width="893" height="944" viewBox="0 0 893 944">
<rect x="0" y="0" width="893" height="900" fill="#fafafa" stroke="#999"/>
<path d="M 83.0 801.9 v 16 M 75.0 809.9 h 16" stroke="#000" stroke-width="1"/>
<line x1="447.5" y1="439.4" x2="447.3" y2="439.4" stroke="#e6194b" stroke-width="1" opacity="0.6"/>
<line x1="447.3" y1="439.4" x2="446.4" y2="439.4" stroke="#e6194b" stroke-width="1" opacity="0.6"/>
<line x1="446.4" y1="439.4" x2="445.9" y2="439.4" stroke="#e6194b" stroke-width="1" opacity="0.6"/>
<line x1="445.9" y1="439.4" x2="445.3" y2="439.4" stroke="#e6194b" stroke-width="1" opacity="0.6"/>
<line x1="445.3" y1="439.4" x2="447.6" y2="461.8" stroke="#e6194b" stroke-width="1" opacity="0.6"/>
<line x1="447.6" y1="461.8" x2="445.3" y2="439.4" stroke="#e6194b" stroke-width="1" opacity="0.6"/>
<line x1="445.3" y1="439.4" x2="447.6" y2="461.8" stroke="#e6194b" stroke-width="1" opacity="0.6"/>
<line x1="447.6" y1="461.8" x2="445.3" y2="439.4" stroke="#e6194b" stroke-width="1" opacity="0.6"/>
<line x1="445.3" y1="439.4" x2="447.6" y2="461.8" stroke="#e6194b" stroke-width="1" opacity="0.6"/>
<line x1="447.6" y1="461.8" x2="445.3" y2="439.4" stroke="#e6194b" stroke-width="1" opacity="0.6"/>
<line x1="445.3" y1="439.4" x2="447.6" y2="461.8" stroke="#e6194b" stroke-width="1" opacity="0.6"/>
<line x1="447.6" y1="461.8" x2="445.3" y2="439.4" stroke="#e6194b" stroke-width="1" opacity="0.6"/>
<line x1="445.3" y1="439.4" x2="447.6" y2="461.8" stroke="#e6194b" stroke-width="1" opacity="0.6"/>
<line x1="447.6" y1="461.8" x2="445.3" y2="439.4" stroke="#e6194b" stroke-width="1" opacity="0.6"/>
<line x1="445.3" y1="439.4" x2="447.6" y2="461.8" stroke="#e6194b" stroke-width="1" opacity="0.6"/>
<line x1="447.6" y1="461.8" x2="445.3" y2="439.4" stroke="#e6194b" stroke-width="1" opacity="0.6"/>
<line x1="445.3" y1="439.4" x2="447.6" y2="461.8" stroke="#e6194b" stroke-width="1" opacity="0.6"/>
<line x1="447.6" y1="461.8" x2="445.3" y2="439.4" stroke="#e6194b" stroke-width="1" opacity="0.6"/>
<line x1="445.3" y1="439.4" x2="447.6" y2="461.8" stroke="#e6194b" stroke-width="1" opacity="0.6"/>
<line x1="447.6" y1="461.8" x2="445.3" y2="439.4" stroke="#e6194b" stroke-width="1" opacity="0.6"/>
<line x1="445.3" y1="439.4" x2="447.6" y2="461.8" stroke="#e6194b" stroke-width="1" opacity="0.6"/>
<line x1="447.6" y1="461.8" x2="445.3" y2="439.4" stroke="#e6194b" stroke-width="1" opacity="0.6"/>
<line x1="445.3" y1="439.4" x2="447.6" y2="461.8" stroke="#e6194b" stroke-width="1" opacity="0.6"/>
<line x1="447.6" y1="461.8" x2="445.3" y2="439.4" stroke="#e6194b" stroke-width="1" opacity="0.6"/>
<line x1="445.3" y1="439.4" x2="447.6" y2="461.8" stroke="#e6194b" stroke-width="1" opacity="0.6"/>
<line x1="447.6" y1="461.8" x2="445.3" y2="439.4" stroke="#e6194b" stroke-width="1" opacity="0.6"/>
<line x1="445.3" y1="439.4" x2="447.6" y2="461.8" stroke="#e6194b" stroke-width="1" opacity="0.6"/>
<line x1="447.6" y1="461.8" x2="445.3" y2="439.4" stroke="#e6194b" stroke-width="1" opacity="0.6"/>
<line x1="445.3" y1="439.4" x2="447.6" y2="461.8" stroke="#e6194b" stroke-width="1" opacity="0.6"/>
<line x1="447.6" y1="461.8" x2="445.3" y2="439.4" stroke="#e6194b" stroke-width="1" opacity="0.6"/>
<line x1="445.3" y1="439.4" x2="447.6" y2="461.8" stroke="#e6194b" stroke-width="1" opacity="0.6"/>
<line x1="447.6" y1="461.8" x2="445.3" y2="439.4" stroke="#e6194b" stroke-width="1" opacity="0.6"/>
<line x1="445.3" y1="439.4" x2="447.6" y2="461.8" stroke="#e6194b" stroke-width="1" opacity="0.6"/>
<line x1="447.6" y1="461.8" x2="445.3" y2="439.4" stroke="#e6194b" stroke-width="1" opacity="0.6"/>
<line x1="445.3" y1="439.4" x2="447.6" y2="461.8" stroke="#e6194b" stroke-width="1" opacity="0.6"/>
<line x1="447.6" y1="461.8" x2="445.3" y2="439.4" stroke="#e6194b" stroke-width="1" opacity="0.6"/>
<line x1="445.3" y1="439.4" x2="447.6" y2="461.8" stroke="#e6194b" stroke-width="1" opacity="0.6"/>
<line x1="447.6" y1="461.8" x2="445.3" y2="439.4" stroke="#e6194b" stroke-width="1" opacity="0.6"/>
<line x1="445.3" y1="439.4" x2="447.6" y2="461.8" stroke="#e6194b" stroke-width="1" opacity="0.6"/>
<line x1="447.6" y1="461.8" x2="445.3" y2="439.4" stroke="#e6194b" stroke-width="1" opacity="0.6"/>
<line x1="445.3" y1="439.4" x2="447.6" y2="461.8" stroke="#e6194b" stroke-width="1" opacity="0.6"/>
<line x1="447.6" y1="461.8" x2="445.3" y2="439.4" stroke="#e6194b" stroke-width="1" opacity="0.6"/>
<line x1="445.3" y1="439.4" x2="447.6" y2="461.8" stroke="#e6194b" stroke-width="1" opacity="0.6"/>
<line x1="447.6" y1="461.8" x2="445.3" y2="439.4" stroke="#e6194b" stroke-width="1" opacity="0.6"/>
<line x1="445.3" y1="439.4" x2="447.6" y2="461.8" stroke="#e6194b" stroke-width="1" opacity="0.6"/>
<line x1="447.6" y1="461.8" x2="445.3" y2="439.4" stroke="#e6194b" stroke-width="1" opacity="0.6"/>
<line x1="445.3" y1="439.4" x2="447.6" y2="461.8" stroke="#e6194b" stroke-width="1" opacity="0.6"/>
<line x1="447.6" y1="461.8" x2="445.3" y2="439.4" stroke="#e6194b" stroke-width="1" opacity="0.6"/>
<line x1="445.3" y1="439.4" x2="447.6" y2="461.8" stroke="#e6194b" stroke-width="1" opacity="0.6"/>
<line x1="447.6" y1="461.8" x2="445.3" y2="439.4" stroke="#e6194b" stroke-width="1" opacity="0.6"/>
<line x1="445.3" y1="439.4" x2="447.6" y2="461.8" stroke="#e6194b" stroke-width="1" opacity="0.6"/>
<line x1="447.6" y1="461.8" x2="445.3" y2="439.4" stroke="#e6194b" stroke-width="1" opacity="0.6"/>
<line x1="445.3" y1="439.4" x2="447.6" y2="461.8" stroke="#e6194b" stroke-width="1" opacity="0.6"/>
<line x1="447.6" y1="461.8" x2="445.3" y2="439.4" stroke="#e6194b" stroke-width="1" opacity="0.6"/>
<line x1="445.3" y1="439.4" x2="447.6" y2="461.8" stroke="#e6194b" stroke-width="1" opacity="0.6"/>
<line x1="447.6" y1="461.8" x2="445.3" y2="439.4" stroke="#e6194b" stroke-width="1" opacity="0.6"/>
<line x1="445.3" y1="439.4" x2="447.6" y2="461.8" stroke="#e6194b" stroke-width="1" opacity="0.6"/>
<line x1="447.6" y1="461.8" x2="445.3" y2="439.4" stroke="#e6194b" stroke-width="1" opacity="0.6"/>
<line x1="445.3" y1="439.4" x2="447.6" y2="461.8" stroke="#e6194b" stroke-width="1" opacity="0.6"/>
<line x1="447.6" y1="461.8" x2="445.3" y2="439.4" stroke="#e6194b" stroke-width="1" opacity="0.6"/>
<line x1="445.3" y1="439.4" x2="447.6" y2="461.8" stroke="#e6194b" stroke-width="1" opacity="0.6"/>
<line x1="447.6" y1="461.8" x2="445.3" y2="439.4" stroke="#e6194b" stroke-width="1" opacity="0.6"/>
<line x1="445.3" y1="439.4" x2="447.6" y2="461.8" stroke="#e6194b" stroke-width="1" opacity="0.6"/>
<line x1="447.6" y1="461.8" x2="445.3" y2="439.4" stroke="#e6194b" stroke-width="1" opacity="0.6"/>
<line x1="445.3" y1="439.4" x2="447.6" y2="461.8" stroke="#e6194b" stroke-width="1" opacity="0.6"/>
<line x1="447.6" y1="461.8" x2="445.3" y2="439.4" stroke="#e6194b" stroke-width="1" opacity="0.6"/>
<line x1="445.3" y1="439.4" x2="447.6" y2="461.8" stroke="#e6194b" stroke-width="1" opacity="0.6"/>
<line x1="447.6" y1="461.8" x2="446.4" y2="439.4" stroke="#e6194b" stroke-width="1" opacity="0.6"/>
<line x1="446.4" y1="439.4" x2="441.9" y2="439.4" stroke="#e6194b" stroke-width="1" opacity="0.6"/>
<line x1="441.9" y1="439.4" x2="439.4" y2="441.9" stroke="#e6194b" stroke-width="1" opacity="0.6"/>
<line x1="439.4" y1="441.9" x2="439.4" y2="451.0" stroke="#e6194b" stroke-width="1" opacity="0.6"/>
<line x1="439.4" y1="451.0" x2="441.9" y2="453.5" stroke="#e6194b" stroke-width="1" opacity="0.6"/>
<line x1="441.9" y1="453.5" x2="451.0" y2="453.5" stroke="#e6194b" stroke-width="1" opacity="0.6"/>
<line x1="451.0" y1="453.5" x2="453.5" y2="451.0" stroke="#e6194b" stroke-width="1" opacity="0.6"/>
<line x1="453.5" y1="451.0" x2="453.5" y2="441.9" stroke="#e6194b" stroke-width="1" opacity="0.6"/>
<line x1="453.5" y1="441.9" x2="451.0" y2="439.4" stroke="#e6194b" stroke-width="1" opacity="0.6"/>
<line x1="451.0" y1="439.4" x2="446.4" y2="439.4" stroke="#e6194b" stroke-width="1" opacity="0.6"/>
<line x1="446.4" y1="439.4" x2="436.7" y2="433.8" stroke="#e6194b" stroke-width="1" opacity="0.6"/>
<line x1="436.7" y1="433.8" x2="425.9" y2="436.7" stroke="#e6194b" stroke-width="1" opacity="0.6"/>
<line x1="425.9" y1="436.7" x2="425.9" y2="464.4" stroke="#e6194b" stroke-width="1" opacity="0.6"/>
<line x1="425.9" y1="464.4" x2="428.5" y2="466.9" stroke="#e6194b" stroke-width="1" opacity="0.6"/>
<line x1="428.5" y1="466.9" x2="464.4" y2="466.9" stroke="#e6194b" stroke-width="1" opacity="0.6"/>
<line x1="464.4" y1="466.9" x2="466.9" y2="464.4" stroke="#e6194b" stroke-width="1" opacity="0.6"/>
<line x1="466.9" y1="464.4" x2="466.9" y2="428.5" stroke="#e6194b" stroke-width="1" opacity="0.6"/>
<line x1="466.9" y1="428.5" x2="464.4" y2="425.9" stroke="#e6194b" stroke-width="1" opacity="0.6"/>
<line x1="464.4" y1="425.9" x2="428.5" y2="425.9" stroke="#e6194b" stroke-width="1" opacity="0.6"/>
<line x1="428.5" y1="425.9" x2="425.9" y2="428.5" stroke="#e6194b" stroke-width="1" opacity="0.6"/>
<line x1="425.9" y1="428.5" x2="425.9" y2="436.7" stroke="#e6194b" stroke-width="1" opacity="0.6"/>
<line x1="425.9" y1="436.7" x2="419.2" y2="446.8" stroke="#e6194b" stroke-width="1" opacity="0.6"/>
<line x1="419.2" y1="446.8" x2="412.5" y2="456.9" stroke="#e6194b" stroke-width="1" opacity="0.6"/>
<line x1="412.5" y1="456.9" x2="412.5" y2="477.9" stroke="#e6194b" stroke-width="1" opacity="0.6"/>
<line x1="412.5" y1="477.9" x2="415.0" y2="480.4" stroke="#e6194b" stroke-width="1" opacity="0.6"/>
<line x1="415.0" y1="480.4" x2="477.9" y2="480.4" stroke="#e6194b" stroke-width="1" opacity="0.6"/>
<line x1="477.9" y1="480.4" x2="480.4" y2="477.9" stroke="#e6194b" stroke-width="1" opacity="0.6"/>
<line x1="480.4" y1="477.9" x2="480.4" y2="415.0" stroke="#e6194b" stroke-width="1" opacity="0.6"/>
<line x1="480.4" y1="415.0" x2="477.9" y2="412.5" stroke="#e6194b" stroke-width="1" opacity="0.6"/>
<line x1="477.9" y1="412.5" x2="415.0" y2="412.5" stroke="#e6194b" stroke-width="1" opacity="0.6"/>
<line x1="415.0" y1="412.5" x2="412.5" y2="415.0" stroke="#e6194b" stroke-width="1" opacity="0.6"/>
<line x1="412.5" y1="415.0" x2="412.5" y2="456.9" stroke="#e6194b" stroke-width="1" opacity="0.6"/>
<line x1="412.5" y1="456.9" x2="405.8" y2="467.0" stroke="#e6194b" stroke-width="1" opacity="0.6"/>
<line x1="405.8" y1="467.0" x2="399.1" y2="477.0" stroke="#e6194b" stroke-width="1" opacity="0.6"/>
<line x1="399.1" y1="477.0" x2="399.1" y2="491.3" stroke="#e6194b" stroke-width="1" opacity="0.6"/>
<line x1="399.1" y1="491.3" x2="401.6" y2="493.8" stroke="#e6194b" stroke-width="1" opacity="0.6"/>
<line x1="401.6" y1="493.8" x2="491.3" y2="493.8" stroke="#e6194b" stroke-width="1" opacity="0.6"/>
<line x1="491.3" y1="493.8" x2="493.8" y2="491.3" stroke="#e6194b" stroke-width="1" opacity="0.6"/>
<line x1="493.8" y1="491.3" x2="493.8" y2="401.6" stroke="#e6194b" stroke-width="1" opacity="0.6"/>
<line x1="493.8" y1="401.6" x2="491.3" y2="399.1" stroke="#e6194b" stroke-width="1" opacity="0.6"/>
<line x1="491.3" y1="399.1" x2="401.6" y2="399.1" stroke="#e6194b" stroke-width="1" opacity="0.6"/>
<line x1="401.6" y1="399.1" x2="399.1" y2="401.6" stroke="#e6194b" stroke-width="1" opacity="0.6"/>
<line x1="399.1" y1="401.6" x2="399.1" y2="477.0" stroke="#e6194b" stroke-width="1" opacity="0.6"/>
<line x1="399.1" y1="477.0" x2="392.4" y2="487.1" stroke="#e6194b" stroke-width="1" opacity="0.6"/>
<line x1="392.4" y1="487.1" x2="385.6" y2="497.2" stroke="#e6194b" stroke-width="1" opacity="0.6"/>
<line x1="385.6" y1="497.2" x2="385.6" y2="504.7" stroke="#e6194b" stroke-width="1" opacity="0.6"/>
<line x1="385.6" y1="504.7" x2="388.2" y2="507.2" stroke="#e6194b" stroke-width="1" opacity="0.6"/>
<line x1="388.2" y1="507.2" x2="504.7" y2="507.2" stroke="#e6194b" stroke-width="1" opacity="0.6"/>
<line x1="504.7" y1="507.2" x2="507.2" y2="504.7" stroke="#e6194b" stroke-width="1" opacity="0.6"/>
<line x1="507.2" y1="504.7" x2="507.2" y2="388.2" stroke="#e6194b" stroke-width="1" opacity="0.6"/>
<line x1="507.2" y1="388.2" x2="504.7" y2="385.6" stroke="#e6194b" stroke-width="1" opacity="0.6"/>
<line x1="504.7" y1="385.6" x2="388.2" y2="385.6" stroke="#e6194b" stroke-width="1" opacity="0.6"/>
<line x1="388.2" y1="385.6" x2="385.6" y2="388.2" stroke="#e6194b" stroke-width="1" opacity="0.6"/>
<line x1="385.6" y1="388.2" x2="385.6" y2="497.2" stroke="#e6194b" stroke-width="1" opacity="0.6"/>
<line x1="385.6" y1="497.2" x2="378.9" y2="507.3" stroke="#e6194b" stroke-width="1" opacity="0.6"/>
<line x1="378.9" y1="507.3" x2="372.2" y2="517.3" stroke="#e6194b" stroke-width="1" opacity="0.6"/>
<line x1="372.2" y1="517.3" x2="372.2" y2="518.2" stroke="#e6194b" stroke-width="1" opacity="0.6"/>
<line x1="372.2" y1="518.2" x2="374.7" y2="520.7" stroke="#e6194b" stroke-width="1" opacity="0.6"/>
<line x1="374.7" y1="520.7" x2="518.2" y2="520.7" stroke="#e6194b" stroke-width="1" opacity="0.6"/>
<line x1="518.2" y1="520.7" x2="520.7" y2="518.2" stroke="#e6194b" stroke-width="1" opacity="0.6"/>
<line x1="520.7" y1="518.2" x2="520.7" y2="374.7" stroke="#e6194b" stroke-width="1" opacity="0.6"/>
<line x1="520.7" y1="374.7" x2="518.2" y2="372.2" stroke="#e6194b" stroke-width="1" opacity="0.6"/>
<line x1="518.2" y1="372.2" x2="374.7" y2="372.2" stroke="#e6194b" stroke-width="1" opacity="0.6"/>
<line x1="374.7" y1="372.2" x2="372.2" y2="374.7" stroke="#e6194b" stroke-width="1" opacity="0.6"/>
<line x1="372.2" y1="374.7" x2="372.2" y2="517.3" stroke="#e6194b" stroke-width="1" opacity="0.6"/>
<line x1="372.2" y1="517.3" x2="367.6" y2="525.3" stroke="#e6194b" stroke-width="1" opacity="0.6"/>
<line x1="367.6" y1="525.3" x2="369.9" y2="534.1" stroke="#e6194b" stroke-width="1" opacity="0.6"/>
<line x1="369.9" y1="534.1" x2="531.6" y2="534.1" stroke="#e6194b" stroke-width="1" opacity="0.6"/>
<line x1="531.6" y1="534.1" x2="534.1" y2="531.6" stroke="#e6194b" stroke-width="1" opacity="0.6"/>
<line x1="534.1" y1="531.6" x2="534.1" y2="361.3" stroke="#e6194b" stroke-width="1" opacity="0.6"/>
<line x1="534.1" y1="361.3" x2="531.6" y2="358.8" stroke="#e6194b" stroke-width="1" opacity="0.6"/>
<line x1="531.6" y1="358.8" x2="361.3" y2="358.8" stroke="#e6194b" stroke-width="1" opacity="0.6"/>
<line x1="361.3" y1="358.8" x2="358.8" y2="361.3" stroke="#e6194b" stroke-width="1" opacity="0.6"/>
<line x1="358.8" y1="361.3" x2="358.8" y2="531.6" stroke="#e6194b" stroke-width="1" opacity="0.6"/>
<line x1="358.8" y1="531.6" x2="361.3" y2="534.1" stroke="#e6194b" stroke-width="1" opacity="0.6"/>
<line x1="361.3" y1="534.1" x2="369.9" y2="534.1" stroke="#e6194b" stroke-width="1" opacity="0.6"/>
<line x1="369.9" y1="534.1" x2="380.0" y2="540.8" stroke="#e6194b" stroke-width="1" opacity="0.6"/>
<line x1="380.0" y1="540.8" x2="390.1" y2="547.5" stroke="#e6194b" stroke-width="1" opacity="0.6"/>
<line x1="390.1" y1="547.5" x2="545.0" y2="547.5" stroke="#e6194b" stroke-width="1" opacity="0.6"/>
<line x1="545.0" y1="547.5" x2="547.5" y2="545.0" stroke="#e6194b" stroke-width="1" opacity="0.6"/>
<line x1="547.5" y1="545.0" x2="547.5" y2="347.9" stroke="#e6194b" stroke-width="1" opacity="0.6"/>
<line x1="547.5" y1="347.9" x2="545.0" y2="345.3" stroke="#e6194b" stroke-width="1" opacity="0.6"/>
<line x1="545.0" y1="345.3" x2="347.9" y2="345.3" stroke="#e6194b" stroke-width="1" opacity="0.6"/>
<line x1="347.9" y1="345.3" x2="345.3" y2="347.9" stroke="#e6194b" stroke-width="1" opacity="0.6"/>
<line x1="345.3" y1="347.9" x2="345.3" y2="545.0" stroke="#e6194b" stroke-width="1" opacity="0.6"/>
<line x1="345.3" y1="545.0" x2="347.9" y2="547.5" stroke="#e6194b" stroke-width="1" opacity="0.6"/>
<line x1="347.9" y1="547.5" x2="390.1" y2="547.5" stroke="#e6194b" stroke-width="1" opacity="0.6"/>
<line x1="390.1" y1="547.5" x2="400.2" y2="554.3" stroke="#e6194b" stroke-width="1" opacity="0.6"/>
<line x1="400.2" y1="554.3" x2="410.2" y2="561.0" stroke="#e6194b" stroke-width="1" opacity="0.6"/>
<line x1="410.2" y1="561.0" x2="558.5" y2="561.0" stroke="#e6194b" stroke-width="1" opacity="0.6"/>
<line x1="558.5" y1="561.0" x2="561.0" y2="558.5" stroke="#e6194b" stroke-width="1" opacity="0.6"/>
<line x1="561.0" y1="558.5" x2="561.0" y2="334.4" stroke="#e6194b" stroke-width="1" opacity="0.6"/>
<line x1="561.0" y1="334.4" x2="558.5" y2="331.9" stroke="#e6194b" stroke-width="1" opacity="0.6"/>
<line x1="558.5" y1="331.9" x2="334.4" y2="331.9" stroke="#e6194b" stroke-width="1" opacity="0.6"/>
<line x1="334.4" y1="331.9" x2="331.9" y2="334.4" stroke="#e6194b" stroke-width="1" opacity="0.6"/>
<line x1="331.9" y1="334.4" x2="331.9" y2="558.5" stroke="#e6194b" stroke-width="1" opacity="0.6"/>
<line x1="331.9" y1="558.5" x2="334.4" y2="561.0" stroke="#e6194b" stroke-width="1" opacity="0.6"/>
<line x1="334.4" y1="561.0" x2="410.2" y2="561.0" stroke="#e6194b" stroke-width="1" opacity="0.6"/>
<line x1="410.2" y1="561.0" x2="420.3" y2="567.7" stroke="#e6194b" stroke-width="1" opacity="0.6"/>
<line x1="420.3" y1="567.7" x2="430.4" y2="574.4" stroke="#e6194b" stroke-width="1" opacity="0.6"/>
<line x1="430.4" y1="574.4" x2="571.9" y2="574.4" stroke="#e6194b" stroke-width="1" opacity="0.6"/>
<line x1="571.9" y1="574.4" x2="574.4" y2="571.9" stroke="#e6194b" stroke-width="1" opacity="0.6"/>
<line x1="574.4" y1="571.9" x2="574.4" y2="321.0" stroke="#e6194b" stroke-width="1" opacity="0.6"/>
<line x1="574.4" y1="321.0" x2="571.9" y2="318.5" stroke="#e6194b" stroke-width="1" opacity="0.6"/>
<line x1="571.9" y1="318.5" x2="321.0" y2="318.5" stroke="#e6194b" stroke-width="1" opacity="0.6"/>
<line x1="321.0" y1="318.5" x2="318.5" y2="321.0" stroke="#e6194b" stroke-width="1" opacity="0.6"/>
<line x1="318.5" y1="321.0" x2="318.5" y2="571.9" stroke="#e6194b" stroke-width="1" opacity="0.6"/>
<line x1="318.5" y1="571.9" x2="321.0" y2="574.4" stroke="#e6194b" stroke-width="1" opacity="0.6"/>
<line x1="321.0" y1="574.4" x2="430.4" y2="574.4" stroke="#e6194b" stroke-width="1" opacity="0.6"/>
<line x1="430.4" y1="574.4" x2="440.5" y2="581.1" stroke="#e6194b" stroke-width="1" opacity="0.6"/>
<line x1="440.5" y1="581.1" x2="450.5" y2="587.8" stroke="#e6194b" stroke-width="1" opacity="0.6"/>
<line x1="450.5" y1="587.8" x2="585.3" y2="587.8" stroke="#e6194b" stroke-width="1" opacity="0.6"/>
<line x1="585.3" y1="587.8" x2="587.8" y2="585.3" stroke="#e6194b" stroke-width="1" opacity="0.6"/>
<line x1="587.8" y1="585.3" x2="587.8" y2="307.6" stroke="#e6194b" stroke-width="1" opacity="0.6"/>
<line x1="587.8" y1="307.6" x2="585.3" y2="305.0" stroke="#e6194b" stroke-width="1" opacity="0.6"/>
<line x1="585.3" y1="305.0" x2="307.6" y2="305.0" stroke="#e6194b" stroke-width="1" opacity="0.6"/>
<line x1="307.6" y1="305.0" x2="305.0" y2="307.6" stroke="#e6194b" stroke-width="1" opacity="0.6"/>
<line x1="305.0" y1="307.6" x2="305.0" y2="585.3" stroke="#e6194b" stroke-width="1" opacity="0.6"/>
<line x1="305.0" y1="585.3" x2="307.6" y2="587.8" stroke="#e6194b" stroke-width="1" opacity="0.6"/>
<line x1="307.6" y1="587.8" x2="450.5" y2="587.8" stroke="#e6194b" stroke-width="1" opacity="0.6"/>
<line x1="450.5" y1="587.8" x2="460.6" y2="594.6" stroke="#e6194b" stroke-width="1" opacity="0.6"/>
<line x1="460.6" y1="594.6" x2="470.7" y2="601.3" stroke="#e6194b" stroke-width="1" opacity="0.6"/>
<line x1="470.7" y1="601.3" x2="598.8" y2="601.3" stroke="#e6194b" stroke-width="1" opacity="0.6"/>
<line x1="598.8" y1="601.3" x2="601.3" y2="598.8" stroke="#e6194b" stroke-width="1" opacity="0.6"/>
<line x1="601.3" y1="598.8" x2="601.3" y2="294.1" stroke="#e6194b" stroke-width="1" opacity="0.6"/>
<line x1="601.3" y1="294.1" x2="598.8" y2="291.6" stroke="#e6194b" stroke-width="1" opacity="0.6"/>
<line x1="598.8" y1="291.6" x2="294.1" y2="291.6" stroke="#e6194b" stroke-width="1" opacity="0.6"/>
<line x1="294.1" y1="291.6" x2="291.6" y2="294.1" stroke="#e6194b" stroke-width="1" opacity="0.6"/>
<line x1="291.6" y1="294.1" x2="291.6" y2="598.8" stroke="#e6194b" stroke-width="1" opacity="0.6"/>
<line x1="291.6" y1="598.8" x2="294.1" y2="601.3" stroke="#e6194b" stroke-width="1" opacity="0.6"/>
<line x1="294.1" y1="601.3" x2="470.7" y2="601.3" stroke="#e6194b" stroke-width="1" opacity="0.6"/>
<line x1="470.7" y1="601.3" x2="480.8" y2="608.0" stroke="#e6194b" stroke-width="1" opacity="0.6"/>
<line x1="480.8" y1="608.0" x2="490.8" y2="614.7" stroke="#e6194b" stroke-width="1" opacity="0.6"/>
<line x1="490.8" y1="614.7" x2="612.2" y2="614.7" stroke="#e6194b" stroke-width="1" opacity="0.6"/>
<line x1="612.2" y1="614.7" x2="614.7" y2="612.2" stroke="#e6194b" stroke-width="1" opacity="0.6"/>
<line x1="614.7" y1="612.2" x2="614.7" y2="280.7" stroke="#e6194b" stroke-width="1" opacity="0.6"/>
<line x1="614.7" y1="280.7" x2="612.2" y2="278.2" stroke="#e6194b" stroke-width="1" opacity="0.6"/>
<line x1="612.2" y1="278.2" x2="280.7" y2="278.2" stroke="#e6194b" stroke-width="1" opacity="0.6"/>
<line x1="280.7" y1="278.2" x2="278.2" y2="280.7" stroke="#e6194b" stroke-width="1" opacity="0.6"/>
<line x1="278.2" y1="280.7" x2="278.2" y2="612.2" stroke="#e6194b" stroke-width="1" opacity="0.6"/>
<line x1="278.2" y1="612.2" x2="280.7" y2="614.7" stroke="#e6194b" stroke-width="1" opacity="0.6"/>
<line x1="280.7" y1="614.7" x2="490.8" y2="614.7" stroke="#e6194b" stroke-width="1" opacity="0.6"/>
<line x1="490.8" y1="614.7" x2="500.9" y2="621.4" stroke="#e6194b" stroke-width="1" opacity="0.6"/>
<line x1="500.9" y1="621.4" x2="511.1" y2="628.2" stroke="#e6194b" stroke-width="1" opacity="0.6"/>
<line x1="511.1" y1="628.2" x2="628.2" y2="628.2" stroke="#e6194b" stroke-width="1" opacity="0.6"/>
<line x1="628.2" y1="628.2" x2="628.2" y2="264.7" stroke="#e6194b" stroke-width="1" opacity="0.6"/>
<line x1="628.2" y1="264.7" x2="264.7" y2="264.7" stroke="#e6194b" stroke-width="1" opacity="0.6"/>
<line x1="264.7" y1="264.7" x2="264.7" y2="628.2" stroke="#e6194b" stroke-width="1" opacity="0.6"/>
<line x1="264.7" y1="628.2" x2="511.1" y2="628.2" stroke="#e6194b" stroke-width="1" opacity="0.6"/>
<line x1="511.1" y1="628.2" x2="511.5" y2="628.1" stroke="#e6194b" stroke-width="1" opacity="0.6"/>
<line x1="511.5" y1="628.1" x2="511.9" y2="628.0" stroke="#e6194b" stroke-width="1" opacity="0.6"/>
<line x1="511.9" y1="628.0" x2="512.3" y2="627.8" stroke="#e6194b" stroke-width="1" opacity="0.6"/>
<line x1="512.3" y1="627.8" x2="512.6" y2="627.6" stroke="#e6194b" stroke-width="1" opacity="0.6"/>
<line x1="512.6" y1="627.6" x2="512.9" y2="627.2" stroke="#e6194b" stroke-width="1" opacity="0.6"/>
<line x1="512.9" y1="627.2" x2="513.0" y2="627.0" stroke="#e6194b" stroke-width="1" opacity="0.6"/>
<line x1="448.8" y1="821.0" x2="448.8" y2="818.6" stroke="#e6194b" stroke-width="1" opacity="0.6"/>
<line x1="448.8" y1="818.6" x2="448.8" y2="816.2" stroke="#e6194b" stroke-width="1" opacity="0.6"/>
<line x1="448.8" y1="816.2" x2="446.4" y2="813.9" stroke="#e6194b" stroke-width="1" opacity="0.6"/>
<line x1="446.4" y1="813.9" x2="90.9" y2="813.9" stroke="#e6194b" stroke-width="1" opacity="0.6"/>
<line x1="90.9" y1="813.9" x2="79.0" y2="802.0" stroke="#e6194b" stroke-width="1" opacity="0.6"/>
<line x1="79.0" y1="802.0" x2="79.0" y2="90.9" stroke="#e6194b" stroke-width="1" opacity="0.6"/>
<line x1="79.0" y1="90.9" x2="90.9" y2="79.0" stroke="#e6194b" stroke-width="1" opacity="0.6"/>
<line x1="90.9" y1="79.0" x2="802.0" y2="79.0" stroke="#e6194b" stroke-width="1" opacity="0.6"/>
<line x1="802.0" y1="79.0" x2="813.9" y2="90.9" stroke="#e6194b" stroke-width="1" opacity="0.6"/>
<line x1="813.9" y1="90.9" x2="813.9" y2="802.0" stroke="#e6194b" stroke-width="1" opacity="0.6"/>
<line x1="813.9" y1="802.0" x2="802.0" y2="813.9" stroke="#e6194b" stroke-width="1" opacity="0.6"/>
<line x1="802.0" y1="813.9" x2="446.4" y2="813.9" stroke="#e6194b" stroke-width="1" opacity="0.6"/>
<line x1="446.4" y1="813.9" x2="444.1" y2="816.2" stroke="#e6194b" stroke-width="1" opacity="0.6"/>
<line x1="444.1" y1="816.2" x2="444.1" y2="818.6" stroke="#e6194b" stroke-width="1" opacity="0.6"/>
<line x1="444.1" y1="818.6" x2="444.1" y2="821.0" stroke="#e6194b" stroke-width="1" opacity="0.6"/>
<circle cx="448.8" cy="821.0" r="7.9" fill="none" stroke="#e6194b" stroke-width="1.5"/>
<text x="4" y="916" font-size="12" font-family="monospace">X -0.5..92.5  Y -1.4..92.5 mm</text>
<circle cx="10" cy="934" r="6" fill="none" stroke="#e6194b" stroke-width="2"/>
<text x="22" y="938" font-size="12" font-family="monospace">T3  (1 holes)</text>
</svg>
